<svg id="visual" viewBox="0 0 1920 1080" width="1920" height="1080" xmlns="http://www.w3.org/2000/svg" xmlns:xlink="http://www.w3.org/1999/xlink" version="1.1"><path d="M0 873L45.7 876C91.3 879 182.7 885 274.2 892.3C365.7 899.7 457.3 908.3 548.8 901.7C640.3 895 731.7 873 823 872C914.3 871 1005.7 891 1097 902.5C1188.3 914 1279.7 917 1371.2 908.5C1462.7 900 1554.3 880 1645.8 873C1737.3 866 1828.7 872 1874.3 875L1920 878L1920 1081L1874.3 1081C1828.7 1081 1737.3 1081 1645.8 1081C1554.3 1081 1462.7 1081 1371.2 1081C1279.7 1081 1188.3 1081 1097 1081C1005.7 1081 914.3 1081 823 1081C731.7 1081 640.3 1081 548.8 1081C457.3 1081 365.7 1081 274.2 1081C182.7 1081 91.3 1081 45.7 1081L0 1081Z" fill="#f74e75"></path><path d="M0 978L45.7 979.2C91.3 980.3 182.7 982.7 274.2 980.2C365.7 977.7 457.3 970.3 548.8 966.5C640.3 962.7 731.7 962.3 823 967.5C914.3 972.7 1005.7 983.3 1097 982C1188.3 980.7 1279.7 967.3 1371.2 959.5C1462.7 951.7 1554.3 949.3 1645.8 951.8C1737.3 954.3 1828.7 961.7 1874.3 965.3L1920 969L1920 1081L1874.3 1081C1828.7 1081 1737.3 1081 1645.8 1081C1554.3 1081 1462.7 1081 1371.2 1081C1279.7 1081 1188.3 1081 1097 1081C1005.7 1081 914.3 1081 823 1081C731.7 1081 640.3 1081 548.8 1081C457.3 1081 365.7 1081 274.2 1081C182.7 1081 91.3 1081 45.7 1081L0 1081Z" fill="#fa707d"></path></svg>