<svg id="visual" viewBox="0 0 1920 1080" width="1920" height="1080" xmlns="http://www.w3.org/2000/svg" xmlns:xlink="http://www.w3.org/1999/xlink" version="1.1"><path d="M0 462L40 462.3C80 462.7 160 463.3 240 450C320 436.7 400 409.3 480 398.2C560 387 640 392 720 425.2C800 458.3 880 519.7 960 531.5C1040 543.3 1120 505.7 1200 475.7C1280 445.7 1360 423.3 1440 426.3C1520 429.3 1600 457.7 1680 485.5C1760 513.3 1840 540.7 1880 554.3L1920 568L1920 0L1880 0C1840 0 1760 0 1680 0C1600 0 1520 0 1440 0C1360 0 1280 0 1200 0C1120 0 1040 0 960 0C880 0 800 0 720 0C640 0 560 0 480 0C400 0 320 0 240 0C160 0 80 0 40 0L0 0Z" fill="#f74e75"></path><path d="M0 316L40 328.3C80 340.7 160 365.3 240 352.8C320 340.3 400 290.7 480 282.7C560 274.7 640 308.3 720 327.7C800 347 880 352 960 348.2C1040 344.3 1120 331.7 1200 334C1280 336.3 1360 353.7 1440 362C1520 370.3 1600 369.7 1680 368.7C1760 367.7 1840 366.3 1880 365.7L1920 365L1920 0L1880 0C1840 0 1760 0 1680 0C1600 0 1520 0 1440 0C1360 0 1280 0 1200 0C1120 0 1040 0 960 0C880 0 800 0 720 0C640 0 560 0 480 0C400 0 320 0 240 0C160 0 80 0 40 0L0 0Z" fill="#f96078"></path><path d="M0 137L40 157.8C80 178.7 160 220.3 240 229C320 237.7 400 213.3 480 191.2C560 169 640 149 720 160.5C800 172 880 215 960 225.2C1040 235.3 1120 212.7 1200 208C1280 203.3 1360 216.7 1440 218.7C1520 220.7 1600 211.3 1680 203.2C1760 195 1840 188 1880 184.5L1920 181L1920 0L1880 0C1840 0 1760 0 1680 0C1600 0 1520 0 1440 0C1360 0 1280 0 1200 0C1120 0 1040 0 960 0C880 0 800 0 720 0C640 0 560 0 480 0C400 0 320 0 240 0C160 0 80 0 40 0L0 0Z" fill="#fa707d"></path></svg>